<svg id="visual" viewBox="0 0 960 300" width="960" height="300" xmlns="http://www.w3.org/2000/svg" xmlns:xlink="http://www.w3.org/1999/xlink" version="1.1"><path d="M0 37L60 37L60 40L120 40L120 34L180 34L180 37L240 37L240 49L300 49L300 25L360 25L360 34L420 34L420 13L480 13L480 22L540 22L540 10L600 10L600 31L660 31L660 22L720 22L720 22L780 22L780 46L840 46L840 49L900 49L900 13L960 13L960 16L960 0L960 0L900 0L900 0L840 0L840 0L780 0L780 0L720 0L720 0L660 0L660 0L600 0L600 0L540 0L540 0L480 0L480 0L420 0L420 0L360 0L360 0L300 0L300 0L240 0L240 0L180 0L180 0L120 0L120 0L60 0L60 0L0 0Z" fill="#739b64"></path><path d="M0 73L60 73L60 121L120 121L120 106L180 106L180 91L240 91L240 133L300 133L300 106L360 106L360 121L420 121L420 109L480 109L480 121L540 121L540 58L600 58L600 52L660 52L660 82L720 82L720 88L780 88L780 76L840 76L840 181L900 181L900 118L960 118L960 163L960 14L960 11L900 11L900 47L840 47L840 44L780 44L780 20L720 20L720 20L660 20L660 29L600 29L600 8L540 8L540 20L480 20L480 11L420 11L420 32L360 32L360 23L300 23L300 47L240 47L240 35L180 35L180 32L120 32L120 38L60 38L60 35L0 35Z" fill="#618a5b"></path><path d="M0 103L60 103L60 175L120 175L120 136L180 136L180 109L240 109L240 160L300 160L300 121L360 121L360 160L420 160L420 163L480 163L480 133L540 133L540 67L600 67L600 100L660 100L660 121L720 121L720 109L780 109L780 100L840 100L840 235L900 235L900 145L960 145L960 208L960 161L960 116L900 116L900 179L840 179L840 74L780 74L780 86L720 86L720 80L660 80L660 50L600 50L600 56L540 56L540 119L480 119L480 107L420 107L420 119L360 119L360 104L300 104L300 131L240 131L240 89L180 89L180 104L120 104L120 119L60 119L60 71L0 71Z" fill="#517951"></path><path d="M0 208L60 208L60 229L120 229L120 235L180 235L180 190L240 190L240 211L300 211L300 232L360 232L360 184L420 184L420 214L480 214L480 226L540 226L540 217L600 217L600 217L660 217L660 223L720 223L720 172L780 172L780 232L840 232L840 262L900 262L900 196L960 196L960 253L960 206L960 143L900 143L900 233L840 233L840 98L780 98L780 107L720 107L720 119L660 119L660 98L600 98L600 65L540 65L540 131L480 131L480 161L420 161L420 158L360 158L360 119L300 119L300 158L240 158L240 107L180 107L180 134L120 134L120 173L60 173L60 101L0 101Z" fill="#426947"></path><path d="M0 250L60 250L60 262L120 262L120 244L180 244L180 214L240 214L240 256L300 256L300 271L360 271L360 229L420 229L420 229L480 229L480 274L540 274L540 271L600 271L600 256L660 256L660 265L720 265L720 220L780 220L780 253L840 253L840 283L900 283L900 247L960 247L960 286L960 251L960 194L900 194L900 260L840 260L840 230L780 230L780 170L720 170L720 221L660 221L660 215L600 215L600 215L540 215L540 224L480 224L480 212L420 212L420 182L360 182L360 230L300 230L300 209L240 209L240 188L180 188L180 233L120 233L120 227L60 227L60 206L0 206Z" fill="#34583d"></path><path d="M0 301L60 301L60 301L120 301L120 301L180 301L180 301L240 301L240 301L300 301L300 301L360 301L360 301L420 301L420 301L480 301L480 301L540 301L540 301L600 301L600 301L660 301L660 301L720 301L720 301L780 301L780 301L840 301L840 301L900 301L900 301L960 301L960 301L960 284L960 245L900 245L900 281L840 281L840 251L780 251L780 218L720 218L720 263L660 263L660 254L600 254L600 269L540 269L540 272L480 272L480 227L420 227L420 227L360 227L360 269L300 269L300 254L240 254L240 212L180 212L180 242L120 242L120 260L60 260L60 248L0 248Z" fill="#274833"></path></svg>