<svg id="visual" viewBox="0 0 960 300" width="960" height="300" xmlns="http://www.w3.org/2000/svg" xmlns:xlink="http://www.w3.org/1999/xlink" version="1.1"><rect x="0" y="0" width="960" height="300" fill="#b64336"></rect><path d="M0 86L26.7 91C53.3 96 106.7 106 160 128.5C213.3 151 266.7 186 320 195.8C373.3 205.7 426.7 190.3 480 170.7C533.3 151 586.7 127 640 117.3C693.3 107.7 746.7 112.3 800 111.2C853.3 110 906.7 103 933.3 99.5L960 96L960 301L933.3 301C906.7 301 853.3 301 800 301C746.7 301 693.3 301 640 301C586.7 301 533.3 301 480 301C426.7 301 373.3 301 320 301C266.7 301 213.3 301 160 301C106.7 301 53.3 301 26.7 301L0 301Z" fill="#461a16" stroke-linecap="round" stroke-linejoin="miter"></path></svg>