<svg id="visual" viewBox="0 0 960 300" width="960" height="300" xmlns="http://www.w3.org/2000/svg" xmlns:xlink="http://www.w3.org/1999/xlink" version="1.1"><path d="M0 73L60 73L60 49L120 49L120 85L180 85L180 61L240 61L240 64L300 64L300 43L360 43L360 28L420 28L420 46L480 46L480 31L540 31L540 31L600 31L600 58L660 58L660 16L720 16L720 49L780 49L780 88L840 88L840 43L900 43L900 46L960 46L960 37L960 0L960 0L900 0L900 0L840 0L840 0L780 0L780 0L720 0L720 0L660 0L660 0L600 0L600 0L540 0L540 0L480 0L480 0L420 0L420 0L360 0L360 0L300 0L300 0L240 0L240 0L180 0L180 0L120 0L120 0L60 0L60 0L0 0Z" fill="#274833"></path><path d="M0 148L60 148L60 121L120 121L120 190L180 190L180 133L240 133L240 115L300 115L300 130L360 130L360 166L420 166L420 151L480 151L480 115L540 115L540 130L600 130L600 100L660 100L660 124L720 124L720 175L780 175L780 160L840 160L840 193L900 193L900 112L960 112L960 73L960 35L960 44L900 44L900 41L840 41L840 86L780 86L780 47L720 47L720 14L660 14L660 56L600 56L600 29L540 29L540 29L480 29L480 44L420 44L420 26L360 26L360 41L300 41L300 62L240 62L240 59L180 59L180 83L120 83L120 47L60 47L60 71L0 71Z" fill="#436440"></path><path d="M0 196L60 196L60 160L120 160L120 214L180 214L180 142L240 142L240 139L300 139L300 181L360 181L360 211L420 211L420 166L480 166L480 136L540 136L540 172L600 172L600 136L660 136L660 175L720 175L720 196L780 196L780 181L840 181L840 220L900 220L900 163L960 163L960 94L960 71L960 110L900 110L900 191L840 191L840 158L780 158L780 173L720 173L720 122L660 122L660 98L600 98L600 128L540 128L540 113L480 113L480 149L420 149L420 164L360 164L360 128L300 128L300 113L240 113L240 131L180 131L180 188L120 188L120 119L60 119L60 146L0 146Z" fill="#66804b"></path><path d="M0 232L60 232L60 205L120 205L120 244L180 244L180 205L240 205L240 151L300 151L300 217L360 217L360 247L420 247L420 217L480 217L480 163L540 163L540 187L600 187L600 181L660 181L660 226L720 226L720 238L780 238L780 217L840 217L840 229L900 229L900 196L960 196L960 139L960 92L960 161L900 161L900 218L840 218L840 179L780 179L780 194L720 194L720 173L660 173L660 134L600 134L600 170L540 170L540 134L480 134L480 164L420 164L420 209L360 209L360 179L300 179L300 137L240 137L240 140L180 140L180 212L120 212L120 158L60 158L60 194L0 194Z" fill="#909c55"></path><path d="M0 271L60 271L60 253L120 253L120 274L180 274L180 217L240 217L240 187L300 187L300 253L360 253L360 259L420 259L420 232L480 232L480 202L540 202L540 232L600 232L600 226L660 226L660 262L720 262L720 280L780 280L780 247L840 247L840 265L900 265L900 241L960 241L960 169L960 137L960 194L900 194L900 227L840 227L840 215L780 215L780 236L720 236L720 224L660 224L660 179L600 179L600 185L540 185L540 161L480 161L480 215L420 215L420 245L360 245L360 215L300 215L300 149L240 149L240 203L180 203L180 242L120 242L120 203L60 203L60 230L0 230Z" fill="#c0b662"></path><path d="M0 301L60 301L60 301L120 301L120 301L180 301L180 301L240 301L240 301L300 301L300 301L360 301L360 301L420 301L420 301L480 301L480 301L540 301L540 301L600 301L600 301L660 301L660 301L720 301L720 301L780 301L780 301L840 301L840 301L900 301L900 301L960 301L960 301L960 167L960 239L900 239L900 263L840 263L840 245L780 245L780 278L720 278L720 260L660 260L660 224L600 224L600 230L540 230L540 200L480 200L480 230L420 230L420 257L360 257L360 251L300 251L300 185L240 185L240 215L180 215L180 272L120 272L120 251L60 251L60 269L0 269Z" fill="#f6cf73"></path></svg>