<svg id="visual" viewBox="0 0 960 300" width="960" height="300" xmlns="http://www.w3.org/2000/svg" xmlns:xlink="http://www.w3.org/1999/xlink" version="1.1"><rect x="0" y="0" width="960" height="300" fill="#f6cf73"></rect><path d="M0 146L9.3 136.2C18.7 126.3 37.3 106.7 56.2 102.3C75 98 94 109 112.8 114.5C131.7 120 150.3 120 169.2 117.2C188 114.3 207 108.7 225.8 104C244.7 99.3 263.3 95.7 282.2 92.2C301 88.7 320 85.3 338.8 97.5C357.7 109.7 376.3 137.3 395.2 146.5C414 155.7 433 146.3 451.8 139.3C470.7 132.3 489.3 127.7 508.2 124C527 120.3 546 117.7 564.8 125.7C583.7 133.7 602.3 152.3 621.2 154.8C640 157.3 659 143.7 677.8 139.5C696.7 135.3 715.3 140.7 734.2 135.3C753 130 772 114 790.8 115.3C809.7 116.7 828.3 135.3 847.2 139.7C866 144 885 134 903.8 121.7C922.7 109.3 941.3 94.7 950.7 87.3L960 80L960 301L950.7 301C941.3 301 922.7 301 903.8 301C885 301 866 301 847.2 301C828.3 301 809.7 301 790.8 301C772 301 753 301 734.2 301C715.3 301 696.7 301 677.8 301C659 301 640 301 621.2 301C602.3 301 583.7 301 564.8 301C546 301 527 301 508.2 301C489.3 301 470.7 301 451.8 301C433 301 414 301 395.2 301C376.3 301 357.7 301 338.8 301C320 301 301 301 282.2 301C263.3 301 244.7 301 225.8 301C207 301 188 301 169.2 301C150.3 301 131.7 301 112.8 301C94 301 75 301 56.2 301C37.3 301 18.7 301 9.3 301L0 301Z" fill="#e69d58"></path><path d="M0 140L9.3 142C18.7 144 37.3 148 56.2 158.7C75 169.3 94 186.7 112.8 186.5C131.7 186.3 150.3 168.7 169.2 162.2C188 155.7 207 160.3 225.8 164.8C244.7 169.3 263.3 173.7 282.2 173.8C301 174 320 170 338.8 174.5C357.7 179 376.3 192 395.2 195.3C414 198.7 433 192.3 451.8 182.3C470.7 172.3 489.3 158.7 508.2 152.2C527 145.7 546 146.3 564.8 148.3C583.7 150.3 602.3 153.7 621.2 163.7C640 173.7 659 190.3 677.8 188.7C696.7 187 715.3 167 734.2 158C753 149 772 151 790.8 158.7C809.7 166.3 828.3 179.7 847.2 178.8C866 178 885 163 903.8 152.5C922.7 142 941.3 136 950.7 133L960 130L960 301L950.7 301C941.3 301 922.7 301 903.8 301C885 301 866 301 847.2 301C828.3 301 809.7 301 790.8 301C772 301 753 301 734.2 301C715.3 301 696.7 301 677.8 301C659 301 640 301 621.2 301C602.3 301 583.7 301 564.8 301C546 301 527 301 508.2 301C489.3 301 470.7 301 451.8 301C433 301 414 301 395.2 301C376.3 301 357.7 301 338.8 301C320 301 301 301 282.2 301C263.3 301 244.7 301 225.8 301C207 301 188 301 169.2 301C150.3 301 131.7 301 112.8 301C94 301 75 301 56.2 301C37.3 301 18.7 301 9.3 301L0 301Z" fill="#d88049"></path><path d="M0 243L9.3 235.3C18.7 227.7 37.3 212.3 56.2 205.5C75 198.7 94 200.3 112.8 197.8C131.7 195.3 150.3 188.7 169.2 187.2C188 185.7 207 189.3 225.8 197.5C244.7 205.7 263.3 218.3 282.2 221.7C301 225 320 219 338.8 217.3C357.7 215.7 376.3 218.3 395.2 215.8C414 213.3 433 205.7 451.8 209.3C470.7 213 489.3 228 508.2 228.2C527 228.3 546 213.7 564.8 214.3C583.7 215 602.3 231 621.2 239.2C640 247.3 659 247.7 677.8 242.7C696.7 237.7 715.3 227.3 734.2 222C753 216.7 772 216.3 790.8 221.5C809.7 226.7 828.3 237.3 847.2 230.2C866 223 885 198 903.8 198C922.7 198 941.3 223 950.7 235.5L960 248L960 301L950.7 301C941.3 301 922.7 301 903.8 301C885 301 866 301 847.2 301C828.3 301 809.7 301 790.8 301C772 301 753 301 734.2 301C715.3 301 696.7 301 677.8 301C659 301 640 301 621.2 301C602.3 301 583.7 301 564.8 301C546 301 527 301 508.2 301C489.3 301 470.7 301 451.8 301C433 301 414 301 395.2 301C376.3 301 357.7 301 338.8 301C320 301 301 301 282.2 301C263.3 301 244.7 301 225.8 301C207 301 188 301 169.2 301C150.3 301 131.7 301 112.8 301C94 301 75 301 56.2 301C37.3 301 18.7 301 9.3 301L0 301Z" fill="#c8623e"></path><path d="M0 262L9.3 263.3C18.7 264.7 37.3 267.3 56.2 265.3C75 263.3 94 256.7 112.8 254.3C131.7 252 150.3 254 169.2 250.5C188 247 207 238 225.8 234C244.7 230 263.3 231 282.2 229.7C301 228.3 320 224.7 338.8 230.2C357.7 235.7 376.3 250.3 395.2 260C414 269.7 433 274.3 451.8 269C470.7 263.7 489.3 248.3 508.2 241C527 233.7 546 234.3 564.8 242.7C583.7 251 602.3 267 621.2 265C640 263 659 243 677.8 240.3C696.7 237.7 715.3 252.3 734.2 251.3C753 250.3 772 233.7 790.8 236.2C809.7 238.7 828.3 260.3 847.2 265C866 269.7 885 257.3 903.8 251C922.7 244.7 941.3 244.3 950.7 244.2L960 244L960 301L950.7 301C941.3 301 922.7 301 903.8 301C885 301 866 301 847.2 301C828.3 301 809.7 301 790.8 301C772 301 753 301 734.2 301C715.3 301 696.7 301 677.8 301C659 301 640 301 621.2 301C602.3 301 583.7 301 564.8 301C546 301 527 301 508.2 301C489.3 301 470.7 301 451.8 301C433 301 414 301 395.2 301C376.3 301 357.7 301 338.8 301C320 301 301 301 282.2 301C263.3 301 244.7 301 225.8 301C207 301 188 301 169.2 301C150.3 301 131.7 301 112.8 301C94 301 75 301 56.2 301C37.3 301 18.7 301 9.3 301L0 301Z" fill="#b64336"></path></svg>